<svg xmlns="http://www.w3.org/2000/svg" xmlns:xlink="http://www.w3.org/1999/xlink" id="Layer_1" x="0" y="0" version="1.1" viewBox="0 0 141.7 141.7" xml:space="preserve" style="enable-background:new 0 0 141.7 141.7"><style type="text/css">.st0{fill:#fff}.st1{fill:none;stroke:#000;stroke-width:.5}.st3{opacity:.4;fill:#00aeef;enable-background:new}.st4{fill:#27aae1}.st5{fill:none;stroke:#27aae1;stroke-width:.577}.st6{fill:#4db484}</style><g id="Notes"><rect id="artboard" width="3300" height="2200" x="447.8" y="-848.8" class="st0"/><line x1="710.8" x2="3483.8" y1="-556.8" y2="-556.8" class="st1"/><text transform="matrix(1 0 0 1 710.7898 -526.7722)" style="font-family:'Arial-BoldMT';font-size:12px">Weight/Scale Variations</text><text transform="matrix(1 0 0 1 983.826 -526.7722)" style="font-family:'ArialMT';font-size:12px">Ultralight</text><text transform="matrix(1 0 0 1 1292.5399 -526.7722)" style="font-family:'ArialMT';font-size:12px">Thin</text><text transform="matrix(1 0 0 1 1587.9091 -526.7722)" style="font-family:'ArialMT';font-size:12px">Light</text><text transform="matrix(1 0 0 1 1876.618 -526.7722)" style="font-family:'ArialMT';font-size:12px">Regular</text><text transform="matrix(1 0 0 1 2173.01 -526.7722)" style="font-family:'ArialMT';font-size:12px">Medium</text><text transform="matrix(1 0 0 1 2466.0461 -526.7722)" style="font-family:'ArialMT';font-size:12px">Semibold</text><text transform="matrix(1 0 0 1 2775.761 -526.7722)" style="font-family:'ArialMT';font-size:12px">Bold</text><text transform="matrix(1 0 0 1 3067.4729 -526.7722)" style="font-family:'ArialMT';font-size:12px">Heavy</text><text transform="matrix(1 0 0 1 3366.5178 -526.7722)" style="font-family:'ArialMT';font-size:12px">Black</text><line x1="710.8" x2="3483.8" y1="1054.2" y2="1054.2" class="st1"/><g><path d="M457-847.9c4.3,0,7.9-3.6,7.9-7.9s-3.6-7.9-7.9-7.9c-4.3,0-7.9,3.6-7.9,7.9S452.7-847.9,457-847.9z M457-849.4 c-3.5,0-6.4-2.8-6.4-6.4c0-3.6,2.8-6.4,6.4-6.4c3.6,0,6.4,2.8,6.4,6.4C463.4-852.3,460.6-849.4,457-849.4z M457-852.2 c0.5,0,0.7-0.3,0.7-0.8v-2.1h2.2c0.5,0,0.8-0.3,0.8-0.7c0-0.5-0.3-0.7-0.8-0.7h-2.2v-2.2c0-0.5-0.3-0.8-0.7-0.8s-0.7,0.3-0.7,0.8 v2.2h-2.2c-0.5,0-0.8,0.3-0.8,0.7c0,0.5,0.4,0.7,0.8,0.7h2.2v2.1C456.3-852.5,456.5-852.2,457-852.2z" transform="matrix(1 0 0 1 263 1933)"/></g><g><path d="M459.5-845.9c5.4,0,10-4.5,10-10c0-5.4-4.5-10-10-10c-5.4,0-10,4.5-10,10C449.5-850.4,454.1-845.9,459.5-845.9z M459.5-847.5c-4.6,0-8.3-3.7-8.3-8.3c0-4.6,3.7-8.3,8.3-8.3c4.6,0,8.3,3.7,8.3,8.3C467.8-851.2,464.1-847.5,459.5-847.5z M459.5-851.2c0.5,0,0.8-0.4,0.8-0.9v-2.9h3.1c0.5,0,0.9-0.3,0.9-0.8c0-0.5-0.4-0.8-0.9-0.8h-3.1v-3.1c0-0.6-0.3-0.9-0.8-0.9 c-0.5,0-0.8,0.4-0.8,0.9v3.1h-3c-0.6,0-0.9,0.3-0.9,0.8c0,0.5,0.4,0.8,0.9,0.8h3v2.9C458.7-851.6,459-851.2,459.5-851.2z" transform="matrix(1 0 0 1 281.506 1933)"/></g><g><path d="M462.8-843.1c7,0,12.7-5.8,12.7-12.7s-5.8-12.7-12.7-12.7c-7,0-12.7,5.8-12.7,12.7S455.8-843.1,462.8-843.1z M462.8-844.9 c-6,0-10.9-4.9-10.9-10.9c0-6,4.8-10.9,10.9-10.9c6,0,10.9,4.9,10.9,10.9C473.7-849.8,468.8-844.9,462.8-844.9z M462.7-849.8 c0.6,0,0.9-0.4,0.9-1v-4.1h4.2c0.6,0,1-0.3,1-0.9c0-0.6-0.4-0.9-1-0.9h-4.2v-4.2c0-0.6-0.4-1-0.9-1c-0.6,0-0.9,0.4-0.9,1v4.2h-4.2 c-0.6,0-1,0.3-1,0.9c0,0.6,0.4,0.9,1,0.9h4.2v4.1C461.9-850.2,462.2-849.8,462.7-849.8z" transform="matrix(1 0 0 1 304.924 1933)"/></g><text transform="matrix(1 0 0 1 710.7898 1104.2278)" style="font-family:'Arial-BoldMT';font-size:12px">Design Variations</text><text transform="matrix(1 0 0 1 710.7898 1122.2278)" style="font-family:'ArialMT';font-size:12px">Symbols are supported in up to nine weights and three scales.</text><text transform="matrix(1 0 0 1 710.7898 1140.2278)" style="font-family:'ArialMT';font-size:12px">For optimal layout with text and other symbols, vertically align</text><text transform="matrix(1 0 0 1 710.7898 1158.2278)" style="font-family:'ArialMT';font-size:12px">symbols with the adjacent text.</text><rect width="3" height="14" x="1223.8" y="1070.2" class="st3"/><g><path d="M458.3-848.8h1.8l-5.2-14.1h-1.7l-5.2,14.1h1.8l1.4-4h5.6L458.3-848.8z M454.1-860.7L454.1-860.7l2.3,6.4h-4.6 L454.1-860.7z" transform="matrix(1 0 0 1 779 1933)"/></g><rect width="3" height="14" x="1239.4" y="1070.2" class="st3"/><text transform="matrix(1 0 0 1 1223.7898 1104.2278)" style="font-family:'Arial-BoldMT';font-size:12px">Margins</text><text transform="matrix(1 0 0 1 1223.7898 1122.2278)" style="font-family:'ArialMT';font-size:12px">Leading and trailing margins on the left and right side of each symbol</text><text transform="matrix(1 0 0 1 1223.7898 1140.2278)" style="font-family:'ArialMT';font-size:12px">can be adjusted by modifying the width of the blue rectangles.</text><text transform="matrix(1 0 0 1 1223.7898 1158.2278)" style="font-family:'ArialMT';font-size:12px">Modifcations are automatically applied proportionally to all</text><text transform="matrix(1 0 0 1 1223.7898 1176.2278)" style="font-family:'ArialMT';font-size:12px">scales and weights.</text><g><path d="M450.6-845.7l1.5,1.5c0.8,0.8,1.8,0.8,2.7-0.2l10.2-11.1c0.4,0.3,0.8,0.3,1.3,0.2l1-0.2l0.7,0.7l0,0.5 c-0.1,0.5,0.1,0.9,0.6,1.4l0.8,0.8c0.5,0.5,1.2,0.5,1.6,0.1l3.3-3.3c0.5-0.5,0.5-1.1,0-1.6l-0.8-0.8c-0.5-0.5-0.9-0.7-1.4-0.6 l-0.5,0.1l-0.7-0.7l0.3-1.1c0.1-0.6,0-1-0.6-1.6l-2.4-2.4c-3.5-3.5-8.1-3.4-11.2-0.3c-0.4,0.4-0.5,1-0.2,1.4 c0.2,0.4,0.7,0.6,1.4,0.4c1.5-0.4,3-0.3,4.5,0.7l-0.6,1.6c-0.2,0.6-0.2,1.1,0,1.5l-11.2,10.3C449.9-847.5,449.8-846.5,450.6-845.7 z M458.5-863.9c2.7-2,6-1.7,8.4,0.7l2.6,2.6c0.2,0.2,0.3,0.4,0.2,0.7l-0.4,1.6l1.6,1.6l1-0.1c0.3,0,0.4,0,0.6,0.2l0.6,0.6 l-2.8,2.7l-0.6-0.6c-0.2-0.2-0.2-0.3-0.2-0.6l0.1-1L468-857l-1.6,0.3c-0.3,0.1-0.4,0.1-0.7-0.2l-2.2-2.2c-0.2-0.2-0.3-0.4-0.1-0.7 l0.9-2.3c-1.6-1.5-3.7-2.4-5.8-1.7c-0.1,0-0.2,0-0.2,0C458.4-863.8,458.4-863.9,458.5-863.9z M451.9-846.4c-0.5-0.5-0.3-0.8,0-1.1 l11-10.1l1.2,1.2l-10.2,10.9c-0.3,0.3-0.7,0.4-1.1,0L451.9-846.4z" transform="matrix(1 0 0 1 1289 1933)"/></g><text transform="matrix(1 0 0 1 1736.7898 1104.2278)" style="font-family:'Arial-BoldMT';font-size:12px">Exporting</text><text transform="matrix(1 0 0 1 1736.7898 1122.2278)" style="font-family:'ArialMT';font-size:12px">Symbols should be outlined when exporting to ensure the</text><text transform="matrix(1 0 0 1 1736.7898 1140.2278)" style="font-family:'ArialMT';font-size:12px">design is preserved when submitting to Xcode.</text><text id="template-version" transform="matrix(1 0 0 1 3406.6394 1084.2278)" style="font-family:'ArialMT';font-size:12px">Template v.1.0</text><text transform="matrix(1 0 0 1 3315.7078 1102.2278)" style="font-family:'ArialMT';font-size:12px">Generated from rectangle.stack</text><text transform="matrix(1 0 0 1 3369.7136 1120.2278)" style="font-family:'ArialMT';font-size:12px">Typeset at 100 points</text><text transform="matrix(1 0 0 1 710.7898 -122.7722)" style="font-family:'ArialMT';font-size:12px">Small</text><text transform="matrix(1 0 0 1 710.7898 307.2278)" style="font-family:'ArialMT';font-size:12px">Medium</text><text transform="matrix(1 0 0 1 710.7898 737.2278)" style="font-family:'ArialMT';font-size:12px">Large</text></g><g id="Guides"><g id="H-reference"><path d="M502.7-848.8h2.7l-27.1-70.5h-2.5l-27.1,70.5h2.7l9.3-24.5h32.8L502.7-848.8z M477-915.9h0.2l15.4,40.4h-31 L477-915.9z" class="st4" transform="matrix(1 0 0 1 339 696)"/></g><line id="Baseline-S" x1="710.8" x2="3483.8" y1="-152.8" y2="-152.8" class="st5"/><line id="Capline-S" x1="710.8" x2="3483.8" y1="-223.2" y2="-223.2" class="st5"/><g id="H-reference_1_"><path d="M502.7-848.8h2.7l-27.1-70.5h-2.5l-27.1,70.5h2.7l9.3-24.5h32.8L502.7-848.8z M477-915.9h0.2l15.4,40.4h-31 L477-915.9z" class="st4" transform="matrix(1 0 0 1 339 1126)"/></g><line id="Baseline-M" x1="710.8" x2="3483.8" y1="277.2" y2="277.2" class="st5"/><line id="Capline-M" x1="710.8" x2="3483.8" y1="206.8" y2="206.8" class="st5"/><g id="H-reference_2_"><path d="M502.7-848.8h2.7l-27.1-70.5h-2.5l-27.1,70.5h2.7l9.3-24.5h32.8L502.7-848.8z M477-915.9h0.2l15.4,40.4h-31 L477-915.9z" class="st4" transform="matrix(1 0 0 1 339 1556)"/></g><line id="Baseline-L" x1="710.8" x2="3483.8" y1="707.2" y2="707.2" class="st5"/><line id="Capline-L" x1="710.8" x2="3483.8" y1="636.8" y2="636.8" class="st5"/><rect id="left-margin" width="12.5" height="119.3" x="1832.8" y="182" class="st3"/><rect id="right-margin" width="12.5" height="119.3" x="1950" y="182" class="st3"/></g><g id="Black-L"><path d="M492.4-957.8h84c-0.6-6.9-5.1-10.8-12.4-10.8h-59.4C497.5-968.5,493-964.6,492.4-957.8z M479.9-936.5H589 c-0.8-7.2-4.9-11.6-13.4-11.6h-82.3C484.8-948.1,480.7-943.6,479.9-936.5z M487.8-810.2h93.1c15.2,0,23.9-8.6,23.9-23.8v-67.8 c0-15.2-8.6-23.8-23.9-23.8h-93.1c-15.3,0-23.9,8.6-23.9,23.8v67.8C463.9-818.9,472.5-810.2,487.8-810.2z M490.5-830.5 c-4.2,0-6.3-1.9-6.3-6.4v-62c0-4.5,2.1-6.4,6.3-6.4h87.6c4.2,0,6.4,1.9,6.4,6.4v62c0,4.5-2.1,6.4-6.4,6.4H490.5z" transform="matrix(1 0 0 1 2846.9 1556)"/></g><g id="Heavy-L"><path d="M491.8-955.6h83.6c-0.5-6.3-4.6-9.9-11.3-9.9h-61.1C496.4-965.4,492.4-961.9,491.8-955.6z M479.4-935.3h108.5 c-0.8-6.6-4.5-10.7-12.3-10.7h-84C483.9-946,480.2-942,479.4-935.3z M486.6-811.7h93.9c14.6,0,22.8-8.1,22.8-22.7v-67.6 c0-14.6-8.2-22.7-22.8-22.7h-93.9c-14.6,0-22.8,8.1-22.8,22.7v67.6C463.9-819.8,472-811.7,486.6-811.7z M488.7-829.2 c-4.8,0-7.3-2.3-7.3-7.4v-63c0-5.1,2.5-7.4,7.3-7.4h89.6c4.8,0,7.4,2.3,7.4,7.4v63c0,5.1-2.5,7.4-7.4,7.4H488.7z" transform="matrix(1 0 0 1 2550.92 1556)"/></g><g id="Bold-L"><path d="M491.2-953.1h83.1c-0.4-5.7-4-8.9-10.1-8.9h-62.9C495.3-962,491.7-958.8,491.2-953.1z M478.8-934.1h107.9 c-0.7-6-4-9.7-10.9-9.7h-86C482.9-943.7,479.6-940.1,478.8-934.1z M485.3-813.3h94.8c13.9,0,21.5-7.5,21.5-21.3V-902 c0-13.8-7.6-21.3-21.5-21.3h-94.8c-13.9,0-21.4,7.5-21.4,21.3v67.5C463.9-820.7,471.4-813.3,485.3-813.3z M486.8-827.7 c-5.5,0-8.4-2.7-8.4-8.5v-64.2c0-5.8,2.9-8.5,8.4-8.5h91.9c5.4,0,8.4,2.7,8.4,8.5v64.2c0,5.8-3,8.5-8.4,8.5H486.8z" transform="matrix(1 0 0 1 2255.04 1556)"/></g><g id="Semibold-L"><path d="M490.8-951.3h82.8c-0.4-5.3-3.6-8.3-9.3-8.3h-64.2C494.4-959.6,491.2-956.6,490.8-951.3z M478.5-933.2h107.4 c-0.8-5.6-3.7-8.9-10.1-8.9h-87.4C482.2-942.1,479.2-938.8,478.5-933.2z M484.4-814.3h95.5c13.4,0,20.6-7.1,20.6-20.4v-67.4 c0-13.3-7.1-20.4-20.6-20.4h-95.5c-13.5,0-20.6,7-20.6,20.4v67.4C463.9-821.4,470.9-814.3,484.4-814.3z M485.4-826.7 c-6,0-9.2-3.1-9.2-9.3v-64.9c0-6.2,3.2-9.3,9.2-9.3h93.5c5.9,0,9.2,3,9.2,9.3v64.9c0,6.2-3.3,9.3-9.2,9.3H485.4z" transform="matrix(1 0 0 1 1958.92 1556)"/></g><g id="Medium-L"><path d="M490.5-950H573c-0.4-4.9-3.3-7.7-8.7-7.7h-65.2C493.8-957.8,490.9-955,490.5-950z M478.2-932.6h107.1 c-0.8-5.3-3.5-8.3-9.4-8.3h-88.3C481.7-940.9,479-937.8,478.2-932.6z M483.7-815.2h95.9c13.1,0,19.9-6.8,19.9-19.7v-67.3 c0-12.9-6.8-19.7-19.9-19.7h-95.9c-13.1,0-19.9,6.7-19.9,19.7v67.3C463.9-821.9,470.6-815.2,483.7-815.2z M484.4-825.9 c-6.3,0-9.8-3.3-9.8-9.9v-65.5c0-6.6,3.4-9.9,9.8-9.9H579c6.2,0,9.8,3.3,9.8,9.9v65.5c0,6.5-3.5,9.9-9.8,9.9H484.4z" transform="matrix(1 0 0 1 1662.64 1556)"/></g><g id="Regular-L"><path d="M490.1-948.3h82.2c-0.3-4.5-2.9-7.1-7.9-7.1h-66.5C493-955.4,490.4-952.9,490.1-948.3z M477.9-931.7h106.6 c-0.7-4.8-3.1-7.7-8.4-7.7h-89.7C481-939.3,478.6-936.5,477.9-931.7z M482.8-816.3h96.6c12.6,0,19-6.4,19-18.8v-67.2 c0-12.5-6.4-18.8-19-18.8h-96.6c-12.6,0-19,6.3-19,18.8v67.2C463.9-822.6,470.2-816.3,482.8-816.3z M483-824.9 c-6.8,0-10.5-3.6-10.5-10.6v-66.3c0-7,3.7-10.6,10.5-10.6h96.2c6.7,0,10.5,3.6,10.5,10.6v66.3c0,7-3.9,10.6-10.5,10.6H483z" transform="matrix(1 0 0 1 1366.49 1556)"/></g><g id="Light-L"><path d="M489.8-946.7h81.9c-0.2-3.5-2.3-5.6-6-5.6h-69.9C492.1-952.3,490-950.1,489.8-946.7z M477.8-931.1h106 c-0.4-3.7-2.4-6-6.4-6h-93.2C480.3-937.2,478.3-934.8,477.8-931.1z M481.8-816.7h97.9c11.9,0,18-6.2,18-17.9v-67.6 c0-11.7-6.2-17.9-18-17.9h-97.9c-11.9,0-18,6.1-18,17.9v67.6C463.9-822.8,470-816.7,481.8-816.7z M482-823.3 c-7.5,0-11.5-4-11.5-11.6v-66.9c0-7.6,4-11.6,11.5-11.6h97.6c7.3,0,11.5,4,11.5,11.6v66.9c0,7.6-4.2,11.6-11.5,11.6H482z" transform="matrix(1 0 0 1 1070.13 1556)"/></g><g id="Thin-L"><path d="M489.5-944.5h81.6c0-2.1-1.4-3.7-3.6-3.7h-74.4C491-948.2,489.5-946.5,489.5-944.5z M477.8-930.4h105.1 c-0.1-2.1-1.5-3.8-3.7-3.8h-97.7C479.2-934.2,477.9-932.5,477.8-930.4z M480.5-817.3h99.7c10.9,0,16.6-5.9,16.6-16.6v-68.1 c0-10.7-5.8-16.6-16.6-16.6h-99.7c-10.9,0-16.6,5.8-16.6,16.6v68.1C463.9-823,469.6-817.3,480.5-817.3z M480.6-821.2 c-8.4,0-12.8-4.4-12.8-12.8v-67.7c0-8.4,4.4-12.8,12.8-12.8H580c8.2,0,12.8,4.4,12.8,12.8v67.7c0,8.4-4.7,12.8-12.8,12.8H480.6z" transform="matrix(1 0 0 1 773.878 1556)"/></g><g id="Ultralight-L"><path d="M489.3-943.4h81.5c0-1.3-1-2.7-2.4-2.7h-76.7C490.4-946.1,489.3-944.7,489.3-943.4z M477.8-930h104.6 c0.1-1.3-1-2.7-2.3-2.7h-100C478.7-932.7,477.7-931.3,477.8-930z M479.8-817.6h100.6c10.4,0,15.9-5.7,15.9-15.9v-68.3 c0-10.2-5.5-15.9-15.9-15.9H479.8c-10.4,0-15.9,5.5-15.9,15.9v68.3C463.9-823.1,469.4-817.6,479.8-817.6z M479.9-820.2 c-8.9,0-13.5-4.6-13.5-13.5v-68.1c0-8.9,4.6-13.5,13.5-13.5h100.3c8.5,0,13.5,4.6,13.5,13.5v68.1c0,8.9-5,13.5-13.5,13.5H479.9z" transform="matrix(1 0 0 1 477.411 1556)"/></g><g id="Black-M"><path d="M483-943.3h65.6c-0.5-5.5-4.2-8.7-10-8.7H493C487.2-952,483.5-948.8,483-943.3z M473.3-925.9h85c-0.5-5.7-4-9.4-10.9-9.4 h-63.3C477.3-935.2,473.8-931.6,473.3-925.9z M479.8-825.2h71.8c12.3,0,19.5-7.3,19.5-19.5v-52.9c0-12.3-7.3-19.5-19.5-19.5h-71.8 c-12.3,0-19.5,7.3-19.5,19.5v52.9C460.2-832.5,467.5-825.2,479.8-825.2z M482.7-843.4c-2.8,0-4.2-1.1-4.2-4.2v-47 c0-3.1,1.3-4.2,4.2-4.2h65.9c2.8,0,4.2,1.1,4.2,4.2v47c0,3.1-1.3,4.2-4.2,4.2H482.7z" transform="matrix(1 0 0 1 2865.53 1126)"/></g><g id="Heavy-M"><path d="M482.5-941.3h65.2c-0.5-5.2-3.9-8.2-9.4-8.2h-46.5C486.3-949.5,482.9-946.5,482.5-941.3z M472.7-924.8h84.6 c-0.5-5.4-3.7-8.8-10.2-8.8h-64.3C476.5-933.6,473.3-930.2,472.7-924.8z M478.8-826.6h72.3c11.8,0,18.6-6.8,18.6-18.5v-52.6 c0-11.8-6.8-18.5-18.6-18.5h-72.3c-11.8,0-18.6,6.7-18.6,18.5v52.6C460.2-833.4,467-826.6,478.8-826.6z M481-842.4 c-3.3,0-5-1.5-5-5v-47.9c0-3.6,1.7-5,5-5h67.8c3.3,0,5,1.5,5,5v47.9c0,3.6-1.7,5-5,5H481z" transform="matrix(1 0 0 1 2569.55 1126)"/></g><g id="Bold-M"><path d="M481.8-939.1h64.7c-0.4-4.8-3.5-7.5-8.6-7.5h-47.6C485.3-946.6,482.2-943.8,481.8-939.1z M472.2-923.6h84 c-0.6-5.1-3.4-8.2-9.3-8.2h-65.4C475.6-931.7,472.8-928.7,472.2-923.6z M477.7-828.2h72.9c11.2,0,17.4-6.2,17.4-17.3v-52.4 c0-11.1-6.2-17.3-17.4-17.3h-72.9c-11.2,0-17.4,6.2-17.4,17.3v52.4C460.2-834.4,466.4-828.2,477.7-828.2z M479.2-841.3 c-3.9,0-5.9-1.9-5.9-5.9v-49.1c0-4.1,2-5.9,5.9-5.9h69.9c3.8,0,5.9,1.9,5.9,5.9v49.1c0,4.1-2.1,5.9-5.9,5.9H479.2z" transform="matrix(1 0 0 1 2273.64 1126)"/></g><g id="Semibold-M"><path d="M481.4-937.5h64.4c-0.4-4.6-3.2-7.1-8.1-7.1h-48.3C484.6-944.6,481.8-942.1,481.4-937.5z M471.8-922.7h83.6 c-0.7-4.8-3.2-7.7-8.7-7.7h-66.2C475-930.4,472.4-927.6,471.8-922.7z M476.9-829.3h73.3c10.8,0,16.7-5.8,16.7-16.5V-898 c0-10.7-5.8-16.6-16.7-16.6h-73.3c-10.8,0-16.7,5.8-16.7,16.6v52.2C460.2-835.1,466.1-829.3,476.9-829.3z M477.9-840.5 c-4.2,0-6.5-2.1-6.5-6.5v-49.8c0-4.4,2.2-6.6,6.5-6.6h71.3c4.2,0,6.5,2.1,6.5,6.6v49.8c0,4.4-2.3,6.5-6.5,6.5H477.9z" transform="matrix(1 0 0 1 1977.5 1126)"/></g><g id="Medium-M"><path d="M481.1-936.3h64.2c-0.3-4.4-2.9-6.7-7.7-6.7h-48.8C484-943.1,481.4-940.7,481.1-936.3z M471.5-922.1h83.3 c-0.7-4.6-3.1-7.3-8.3-7.3h-66.8C474.5-929.4,472.2-926.8,471.5-922.1z M476.3-830.2h73.6c10.5,0,16.1-5.5,16.1-15.9v-52.1 c0-10.4-5.6-15.9-16.1-15.9h-73.6c-10.6,0-16.1,5.4-16.1,15.9v52.1C460.2-835.6,465.7-830.2,476.3-830.2z M476.9-839.9 c-4.5,0-7-2.3-7-7.1v-50.3c0-4.7,2.5-7.1,7-7.1h72.4c4.5,0,7,2.3,7,7.1v50.3c0,4.7-2.5,7.1-7,7.1H476.9z" transform="matrix(1 0 0 1 1681.2 1126)"/></g><g id="Regular-M"><path d="M480.7-934.8h63.8c-0.3-4.1-2.6-6.3-7.1-6.3h-49.6C483.3-941.1,481-938.9,480.7-934.8z M471.1-921.3h83 c-0.7-4.4-2.8-6.9-7.7-6.9h-67.5C474-928.2,471.9-925.7,471.1-921.3z M475.6-831.2h74c10.2,0,15.3-5.1,15.3-15.1v-51.9 c0-10.1-5.1-15.1-15.3-15.1h-74c-10.3,0-15.3,5-15.3,15.1v51.9C460.2-836.3,465.3-831.2,475.6-831.2z M475.7-839.1 c-4.9,0-7.6-2.6-7.6-7.7v-51c0-5.1,2.7-7.7,7.6-7.7h73.8c4.8,0,7.6,2.6,7.6,7.7v51c0,5.1-2.8,7.7-7.6,7.7H475.7z" transform="matrix(1 0 0 1 1385.05 1126)"/></g><g id="Light-M"><path d="M480.5-933.3h63.6c-0.2-3.2-2.1-5-5.5-5H486C482.6-938.3,480.7-936.5,480.5-933.3z M471.1-920.8h82.4 c-0.5-3.4-2.2-5.4-5.9-5.4H477C473.3-926.2,471.6-924.2,471.1-920.8z M474.6-831.6h75.2c9.5,0,14.4-4.9,14.4-14.3v-52.2 c0-9.4-4.9-14.3-14.4-14.3h-75.2c-9.6,0-14.4,4.8-14.4,14.3v52.2C460.2-836.5,465.1-831.6,474.6-831.6z M474.7-837.7 c-5.5,0-8.4-2.9-8.4-8.5v-51.6c0-5.7,3-8.5,8.4-8.5h75c5.4,0,8.4,2.9,8.4,8.5v51.6c0,5.6-3.1,8.5-8.4,8.5H474.7z" transform="matrix(1 0 0 1 1088.66 1126)"/></g><g id="Thin-M"><path d="M480.2-931.3h63.3c-0.1-1.9-1.3-3.3-3.3-3.3h-56.7C481.5-934.6,480.3-933.2,480.2-931.3z M471-920.1h81.6 c-0.1-2-1.3-3.4-3.5-3.4h-74.7C472.4-923.5,471.2-922.1,471-920.1z M473.4-832.2h76.9c8.6,0,13.2-4.6,13.2-13.1v-52.6 c0-8.5-4.5-13.1-13.2-13.1h-76.9c-8.6,0-13.2,4.5-13.2,13.1v52.6C460.2-836.7,464.8-832.2,473.4-832.2z M473.5-835.8 c-6.3,0-9.7-3.3-9.7-9.7v-52.2c0-6.4,3.3-9.7,9.7-9.7h76.7c6.1,0,9.7,3.3,9.7,9.7v52.2c0,6.4-3.6,9.7-9.7,9.7H473.5z" transform="matrix(1 0 0 1 792.36 1126)"/></g><g id="Ultralight-M"><path d="M480.1-930.3h63.2c0-1.3-0.9-2.4-2.2-2.4h-58.7C480.9-932.8,480.1-931.6,480.1-930.3z M471-919.8h81.2 c0-1.3-0.9-2.4-2.2-2.4h-76.8C471.9-922.2,471-921,471-919.8z M472.8-832.5h77.7c8.2,0,12.5-4.4,12.5-12.5v-52.8 c0-8.1-4.3-12.5-12.5-12.5h-77.7c-8.2,0-12.5,4.3-12.5,12.5v52.8C460.2-836.8,464.6-832.5,472.8-832.5z M472.9-834.9 c-6.7,0-10.3-3.5-10.3-10.3v-52.6c0-6.7,3.5-10.3,10.3-10.3h77.5c6.5,0,10.3,3.5,10.3,10.3v52.6c0,6.7-3.8,10.3-10.3,10.3H472.9z" transform="matrix(1 0 0 1 495.868 1126)"/></g><g id="Black-S"><path d="M475.3-930.3h51.4c-0.4-4.3-3.3-6.8-7.8-6.8h-35.7C478.6-937.2,475.7-934.6,475.3-930.3z M467.7-916.7h66.6 c-0.4-4.4-3.1-7.3-8.5-7.3h-49.6C470.8-924.1,468.1-921.2,467.7-916.7z M472.8-838H529c9.6,0,15.2-5.7,15.2-15.2v-41.4 c0-9.6-5.7-15.2-15.2-15.2h-56.2c-9.6,0-15.2,5.7-15.2,15.2v41.4C457.6-843.7,463.2-838,472.8-838z M475-852.2 c-2.2,0-3.3-0.9-3.3-3.3v-36.9c0-2.4,1.1-3.3,3.3-3.3h51.8c2.2,0,3.3,0.9,3.3,3.3v36.9c0,2.4-1.1,3.3-3.3,3.3H475z" transform="matrix(1 0 0 1 2880.28 696)"/></g><g id="Heavy-S"><path d="M474.9-928.9H526c-0.3-4.2-3.1-6.5-7.5-6.5h-36.1C478-935.5,475.3-933.1,474.9-928.9z M467.3-916h66.3c-0.5-4.3-3-7-8.2-7 h-50C470.3-923,467.8-920.3,467.3-916z M472.2-839.1h56.5c9.3,0,14.6-5.3,14.6-14.5v-41.2c0-9.2-5.3-14.5-14.6-14.5h-56.5 c-9.3,0-14.6,5.3-14.6,14.5v41.2C457.6-844.4,462.8-839.1,472.2-839.1z M473.9-851.6c-2.5,0-3.8-1.1-3.8-3.9V-893 c0-2.7,1.3-3.9,3.8-3.9h53.1c2.5,0,3.8,1.1,3.8,3.9v37.6c0,2.7-1.3,3.9-3.8,3.9H473.9z" transform="matrix(1 0 0 1 2584.08 696)"/></g><g id="Bold-S"><path d="M474.5-927.4h50.7c-0.3-4-2.8-6.2-7.1-6.2h-36.5C477.3-933.6,474.8-931.4,474.5-927.4z M466.9-915.1h66 c-0.5-4.2-2.8-6.7-7.7-6.7h-50.5C469.7-921.8,467.5-919.3,466.9-915.1z M471.4-840.3h56.8c8.9,0,13.9-4.8,13.9-13.7v-41 c0-8.9-4.9-13.7-13.9-13.7h-56.8c-9,0-13.9,4.8-13.9,13.7v41C457.6-845.1,462.4-840.3,471.4-840.3z M472.6-850.9 c-2.9,0-4.4-1.4-4.4-4.4v-38.3c0-3.1,1.6-4.4,4.4-4.4H527c2.9,0,4.4,1.4,4.4,4.4v38.3c0,3.1-1.6,4.4-4.4,4.4H472.6z" transform="matrix(1 0 0 1 2287.95 696)"/></g><g id="Semibold-S"><path d="M474.2-926.4h50.5c-0.3-3.9-2.7-6-6.9-6H481C476.8-932.3,474.5-930.3,474.2-926.4z M466.6-914.5h65.7 c-0.6-4.2-2.7-6.5-7.4-6.5h-50.8C469.3-921,467.2-918.6,466.6-914.5z M470.9-841.1h57c8.7,0,13.4-4.6,13.4-13.2v-40.8 c0-8.6-4.6-13.2-13.4-13.2h-57c-8.7,0-13.3,4.5-13.3,13.2v40.8C457.6-845.6,462.1-841.1,470.9-841.1z M471.7-850.4 c-3.1,0-4.8-1.6-4.8-4.9v-38.8c0-3.3,1.7-4.9,4.8-4.9h55.5c3.1,0,4.8,1.6,4.8,4.9v38.8c0,3.3-1.7,4.9-4.8,4.9H471.7z" transform="matrix(1 0 0 1 1991.63 696)"/></g><g id="Medium-S"><path d="M474-925.6h50.3c-0.3-3.8-2.5-5.8-6.6-5.8h-37.1C476.5-931.3,474.3-929.4,474-925.6z M466.4-914.1h65.5 c-0.6-4.1-2.6-6.3-7.2-6.3h-51.1C469-920.4,467-918.1,466.4-914.1z M470.5-841.7h57.2c8.5,0,12.9-4.3,12.9-12.8v-40.6 c0-8.4-4.4-12.8-12.9-12.8h-57.2c-8.5,0-12.9,4.3-12.9,12.8v40.6C457.6-846,462-841.7,470.5-841.7z M471-850 c-3.3,0-5.1-1.7-5.1-5.2v-39.2c0-3.5,1.9-5.2,5.1-5.2h56.2c3.3,0,5.1,1.7,5.1,5.2v39.2c0,3.5-1.9,5.2-5.1,5.2H471z" transform="matrix(1 0 0 1 1695.24 696)"/></g><g id="Regular-S"><path d="M473.7-924.5h50.1c-0.3-3.7-2.4-5.6-6.4-5.6h-37.4C476-930.1,474-928.2,473.7-924.5z M466.1-913.4h65.3 c-0.7-4-2.5-6.2-6.9-6.2H473C468.6-919.6,466.8-917.4,466.1-913.4z M470-842.5h57.4c8.3,0,12.5-4.1,12.5-12.3v-40.5 c0-8.2-4.2-12.3-12.5-12.3H470c-8.3,0-12.5,4.1-12.5,12.3v40.5C457.6-846.6,461.7-842.5,470-842.5z M470.1-849.5 c-3.5,0-5.5-1.9-5.5-5.6v-39.7c0-3.7,2-5.6,5.5-5.6h57.2c3.5,0,5.5,1.9,5.5,5.6v39.7c0,3.7-2,5.6-5.5,5.6H470.1z" transform="matrix(1 0 0 1 1398.92 696)"/></g><g id="Light-S"><path d="M473.5-923.2h50c-0.2-2.9-1.9-4.4-4.9-4.4h-40.1C475.3-927.6,473.7-926.1,473.5-923.2z M466.1-913h64.8 c-0.5-3.1-2-4.8-5.3-4.8h-54.2C468.1-917.8,466.5-916.1,466.1-913z M469.2-842.8h58.5c7.7,0,11.7-3.9,11.7-11.5v-40.8 c0-7.6-4-11.5-11.7-11.5h-58.5c-7.7,0-11.6,3.9-11.6,11.5v40.8C457.6-846.7,461.5-842.8,469.2-842.8z M469.3-848.3 c-4.1,0-6.3-2.1-6.3-6.3v-40.2c0-4.2,2.2-6.4,6.3-6.4h58.3c4,0,6.3,2.2,6.3,6.4v40.2c0,4.2-2.3,6.3-6.3,6.3H469.3z" transform="matrix(1 0 0 1 1102.47 696)"/></g><g id="Thin-S"><path d="M473.2-921.5h49.7c-0.1-1.7-1.2-2.9-3-2.9h-43.7C474.4-924.4,473.3-923.2,473.2-921.5z M466.1-912.4h64.1 c-0.1-1.8-1.2-3-3.2-3h-57.8C467.2-915.5,466.2-914.3,466.1-912.4z M468.1-843.3H528c7,0,10.6-3.7,10.6-10.5V-895 c0-6.8-3.6-10.5-10.6-10.5h-59.9c-6.9,0-10.5,3.6-10.5,10.5v41.2C457.6-846.9,461.2-843.3,468.1-843.3z M468.2-846.6 c-4.8,0-7.3-2.5-7.3-7.4v-40.8c0-4.8,2.5-7.3,7.3-7.3h59.7c4.7,0,7.4,2.5,7.4,7.3v40.8c0,4.9-2.7,7.4-7.4,7.4H468.2z" transform="matrix(1 0 0 1 806.129 696)"/></g><g id="Ultralight-S"><path d="M473.1-920.5h49.5c0-1.2-0.8-2.1-2-2.1h-45.5C473.9-922.7,473.1-921.7,473.1-920.5z M466-912.1h63.8c0-1.2-0.8-2.2-2.1-2.2 h-59.7C466.8-914.3,466.1-913.3,466-912.1z M467.6-843.5h60.6c6.5,0,10-3.5,10-10v-41.4c0-6.4-3.5-10-10-10h-60.6 c-6.5,0-10,3.5-10,10v41.4C457.6-847,461-843.5,467.6-843.5z M467.7-845.7c-5.2,0-7.9-2.7-7.9-7.9v-41.1c0-5.2,2.7-7.9,7.9-7.9 h60.4c5,0,7.9,2.7,7.9,7.9v41.1c0,5.2-2.9,7.9-7.9,7.9H467.7z" transform="matrix(1 0 0 1 509.613 696)"/></g><g id="Regular-M_1_"><path d="M-1539-1103.8h63.8c-0.3-4.1-2.6-6.3-7.1-6.3h-49.6C-1536.4-1110.1-1538.7-1107.9-1539-1103.8z M-1548.6-1090.2h83 c-0.7-4.4-2.8-6.9-7.7-6.9h-67.5C-1545.8-1097.1-1547.9-1094.7-1548.6-1090.2z M-1544.1-1000.2h74c10.2,0,15.3-5.1,15.3-15.1v-51.9 c0-10.1-5.1-15.1-15.3-15.1h-74c-10.3,0-15.3,5-15.3,15.1v51.9C-1559.5-1005.3-1554.4-1000.2-1544.1-1000.2z M-1544-1008.1 c-4.9,0-7.6-2.6-7.6-7.7v-51c0-5.1,2.7-7.7,7.6-7.7h73.8c4.8,0,7.6,2.6,7.6,7.7v51c0,5.1-2.8,7.7-7.6,7.7H-1544z" transform="matrix(1 0 0 1 1385.05 1126)"/></g><g id="Regular-M_2_"><path d="M-1694.5-1005.3c27.2,0,49.8-22.6,49.8-49.8c0-27.2-22.6-49.8-49.9-49.8c-27.2,0-49.8,22.6-49.8,49.8 C-1744.3-1027.9-1721.7-1005.3-1694.5-1005.3z M-1694.5-1013.6c-23,0-41.5-18.5-41.5-41.5c0-23,18.4-41.5,41.4-41.5 c23,0,41.5,18.5,41.6,41.5C-1652.9-1032.1-1671.4-1013.6-1694.5-1013.6z M-1694.5-1057.9c7.1,0,12.7-6,12.7-14 c0-7.4-5.7-13.6-12.7-13.6c-7.1,0-12.7,6.2-12.7,13.6C-1707.2-1063.9-1701.6-1057.9-1694.5-1057.9z M-1717.2-1030.2h45.4 c2,0,2.9-1.3,2.9-3.1c0-5.5-8.2-19.6-25.6-19.6c-17.4,0-25.6,14.1-25.6,19.6C-1720.1-1031.5-1719.2-1030.2-1717.2-1030.2z" transform="matrix(1 0 0 1 1391.3 1126)"/></g><g id="Regular-M_3_"><path d="M-1351.2-1005.2h57.5c8.7,0,13.9-5.1,13.9-15.1v-50.5c0-10.1-5.2-15.1-15.3-15.1h-7.8c-0.2-10.3-9.2-19-20.2-19 c-11,0-20,8.7-20.2,19h-7.8c-10.2,0-15.3,5-15.3,15.1v50.5C-1366.5-1010.3-1361.4-1005.2-1351.2-1005.2z M-1323.2-1097.6 c6.9,0,12.1,5.2,12.4,11.6h-24.7C-1335.3-1092.4-1330.1-1097.6-1323.2-1097.6z M-1351.1-1013.1c-4.9,0-7.6-2.6-7.6-7.7v-49.8 c0-5.1,2.7-7.7,7.6-7.7h55.8c4.8,0,7.6,2.6,7.6,7.7v49.8c0,5.1-2.8,7.7-6.2,7.7H-1351.1z" transform="matrix(1 0 0 1 1394.06 1126)"/></g><g id="Regular-M_4_"><path d="M-1694.5-1186.5c27.2,0,49.8-22.6,49.8-49.8c0-27.2-22.6-49.8-49.9-49.8c-27.2,0-49.8,22.6-49.8,49.8 C-1744.3-1209.1-1721.7-1186.5-1694.5-1186.5z M-1694.5-1194.8c-23,0-41.5-18.5-41.5-41.5c0-23,18.4-41.5,41.4-41.5 c23,0,41.5,18.5,41.6,41.5C-1652.9-1213.3-1671.4-1194.8-1694.5-1194.8z M-1694.5-1239.1c7.1,0,12.7-6,12.7-14 c0-7.4-5.7-13.6-12.7-13.6c-7.1,0-12.7,6.2-12.7,13.6C-1707.2-1245.1-1701.6-1239.1-1694.5-1239.1z M-1717.2-1211.4h45.4 c2,0,2.9-1.3,2.9-3.1c0-5.5-8.2-19.6-25.6-19.6c-17.4,0-25.6,14.1-25.6,19.6C-1720.1-1212.7-1719.2-1211.4-1717.2-1211.4z" class="st6" transform="matrix(1 0 0 1 1391.3 1126)"/></g><g id="Regular-M_5_"><path d="M-1539-1284.9h63.8c-0.3-4.1-2.6-6.3-7.1-6.3h-49.6C-1536.4-1291.2-1538.7-1289.1-1539-1284.9z M-1548.6-1271.4h83c-0.7-4.4-2.8-6.9-7.7-6.9h-67.5C-1545.8-1278.3-1547.9-1275.9-1548.6-1271.4z M-1544.1-1181.4h74 c10.2,0,15.3-5.1,15.3-15.1v-51.9c0-10.1-5.1-15.1-15.3-15.1h-74c-10.3,0-15.3,5-15.3,15.1v51.9 C-1559.5-1186.5-1554.4-1181.4-1544.1-1181.4z M-1544-1189.2c-4.9,0-7.6-2.6-7.6-7.7v-51c0-5.1,2.7-7.7,7.6-7.7h73.8 c4.8,0,7.6,2.6,7.6,7.7v51c0,5.1-2.8,7.7-7.6,7.7H-1544z" class="st6" transform="matrix(1 0 0 1 1385.05 1126)"/></g><g id="Regular-M_6_"><path d="M-1351.2-1186.4h57.5c8.7,0,13.9-5.1,13.9-15.1v-50.5c0-10.1-5.2-15.1-15.3-15.1h-7.8 c-0.2-10.3-9.2-19-20.2-19c-11,0-20,8.7-20.2,19h-7.8c-10.2,0-15.3,5-15.3,15.1v50.5C-1366.5-1191.4-1361.4-1186.4-1351.2-1186.4z M-1323.2-1278.8c6.9,0,12.1,5.2,12.4,11.6h-24.7C-1335.3-1273.6-1330.1-1278.8-1323.2-1278.8z M-1351.1-1194.3 c-4.9,0-7.6-2.6-7.6-7.7v-49.8c0-5.1,2.7-7.7,7.6-7.7h55.8c4.8,0,7.6,2.6,7.6,7.7v49.8c0,5.1-2.8,7.7-6.2,7.7H-1351.1z" class="st6" transform="matrix(1 0 0 1 1394.06 1126)"/></g><rect width="249.6" height="277.2" x="-753.2" y="-92.9" class="st6"/></svg>