<svg xmlns="http://www.w3.org/2000/svg" xmlns:xlink="http://www.w3.org/1999/xlink" x="0" y="0" fill="#000" enable-background="new 0 0 11 11" version="1.1" viewBox="0 0 11 11" xml:space="preserve"><rect width="5" height="5" x="0" y="0" fill="#000"/><rect width="5" height="5" x="6" y="0" fill="#000"/><rect width="5" height="5" x="0" y="6" fill="#000"/><rect width="3" height="3" x="1" y="1" fill="#fff"/><rect width="1" height="1" x="2" y="2" fill="#000"/><rect width="3" height="3" x="7" y="1" fill="#fff"/><rect width="1" height="1" x="8" y="2" fill="#000"/><rect width="3" height="3" x="1" y="7" fill="#fff"/><rect width="1" height="1" x="2" y="8" fill="#000"/><rect width="1" height="1" x="6" y="6" fill="#000"/><rect width="1" height="1" x="8" y="6" fill="#000"/><rect width="1" height="1" x="10" y="6" fill="#000"/><rect width="1" height="1" x="6" y="8" fill="#000"/><rect width="1" height="1" x="8" y="8" fill="#000"/><rect width="1" height="1" x="10" y="8" fill="#000"/><rect width="1" height="1" x="6" y="10" fill="#000"/><rect width="1" height="1" x="8" y="10" fill="#000"/><rect width="1" height="1" x="10" y="10" fill="#000"/><rect width="1" height="1" x="7" y="7" fill="#000"/><rect width="1" height="1" x="9" y="7" fill="#000"/><rect width="1" height="1" x="7" y="9" fill="#000"/><rect width="1" height="1" x="9" y="9" fill="#000"/></svg>